<svg version="1.2" xmlns="http://www.w3.org/2000/svg" viewBox="0 0 500 497" width="50" height="50"><defs><linearGradient id="P" gradientUnits="userSpaceOnUse"/><linearGradient id="g1" x2="1" href="#P" gradientTransform="matrix(479,0,0,479,10,249.5)"><stop stop-color="#462ef1"/><stop offset="1" stop-color="#ef33ee"/></linearGradient></defs><style>.a{fill:url(#g1);stroke:#0809f9;stroke-miterlimit:100}.b{fill:#fff}</style><path class="a" d="m249.5 489c-132.4 0-239.5-107.1-239.5-239.5 0-132.4 107.1-239.5 239.5-239.5 132.4 0 239.5 107.1 239.5 239.5 0 132.4-107.1 239.5-239.5 239.5z"/><path class="b" d="m198.7 273.4l-36.2-98-36.2 98zm-126.4 72.6l75.1-196.8h30.2l75 196.8h-27.6l-18-50.5h-88.7l-17.9 50.5zm197.7-174.4v-22.4h154.7v20.3l-124.5 154.1h127.5v22.4h-160.7v-20.3l124.5-154.1z"/></svg>